<mxfile host="Electron" modified="2024-05-06T06:39:35.722Z" agent="Mozilla/5.0 (Windows NT 10.0; Win64; x64) AppleWebKit/537.36 (KHTML, like Gecko) draw.io/24.2.5 Chrome/120.0.6099.109 Electron/28.1.0 Safari/537.36" etag="5MG7b_HZ7Pu9Bhd_Jhoh" version="24.2.5" type="device">
  <diagram id="R2lEEEUBdFMjLlhIrx00" name="Page-1">
    <mxGraphModel dx="1134" dy="799" grid="1" gridSize="10" guides="1" tooltips="1" connect="1" arrows="1" fold="1" page="1" pageScale="1" pageWidth="850" pageHeight="1100" math="0" shadow="0" extFonts="Permanent Marker^https://fonts.googleapis.com/css?family=Permanent+Marker">
      <root>
        <mxCell id="0" />
        <mxCell id="1" parent="0" />
        <mxCell id="Gz5a2Q4NAkWicUtKExjE-39" style="edgeStyle=none;rounded=0;orthogonalLoop=1;jettySize=auto;html=1;entryX=0;entryY=0.5;entryDx=0;entryDy=0;strokeColor=default;align=center;verticalAlign=middle;fontFamily=Helvetica;fontSize=11;fontColor=default;labelBackgroundColor=default;endArrow=none;endFill=0;" edge="1" parent="1" source="Gz5a2Q4NAkWicUtKExjE-4" target="Gz5a2Q4NAkWicUtKExjE-37">
          <mxGeometry relative="1" as="geometry" />
        </mxCell>
        <mxCell id="Gz5a2Q4NAkWicUtKExjE-48" value="M" style="edgeLabel;html=1;align=center;verticalAlign=middle;resizable=0;points=[];fontFamily=Helvetica;fontSize=11;fontColor=default;labelBackgroundColor=default;" vertex="1" connectable="0" parent="Gz5a2Q4NAkWicUtKExjE-39">
          <mxGeometry x="0.6358" relative="1" as="geometry">
            <mxPoint as="offset" />
          </mxGeometry>
        </mxCell>
        <mxCell id="Gz5a2Q4NAkWicUtKExjE-64" style="edgeStyle=none;rounded=0;orthogonalLoop=1;jettySize=auto;html=1;entryX=0.5;entryY=0;entryDx=0;entryDy=0;strokeColor=default;align=center;verticalAlign=middle;fontFamily=Helvetica;fontSize=11;fontColor=default;labelBackgroundColor=default;endArrow=none;endFill=0;" edge="1" parent="1" source="Gz5a2Q4NAkWicUtKExjE-4" target="Gz5a2Q4NAkWicUtKExjE-63">
          <mxGeometry relative="1" as="geometry" />
        </mxCell>
        <mxCell id="Gz5a2Q4NAkWicUtKExjE-4" value="Customer" style="whiteSpace=wrap;html=1;align=center;" vertex="1" parent="1">
          <mxGeometry x="170" y="120" width="100" height="40" as="geometry" />
        </mxCell>
        <mxCell id="Gz5a2Q4NAkWicUtKExjE-6" value="Product" style="whiteSpace=wrap;html=1;align=center;" vertex="1" parent="1">
          <mxGeometry x="600" y="390" width="100" height="40" as="geometry" />
        </mxCell>
        <mxCell id="Gz5a2Q4NAkWicUtKExjE-34" style="edgeStyle=none;rounded=0;orthogonalLoop=1;jettySize=auto;html=1;entryX=0;entryY=0.5;entryDx=0;entryDy=0;strokeColor=default;align=center;verticalAlign=middle;fontFamily=Helvetica;fontSize=11;fontColor=default;labelBackgroundColor=default;endArrow=none;endFill=0;" edge="1" parent="1" source="Gz5a2Q4NAkWicUtKExjE-7" target="Gz5a2Q4NAkWicUtKExjE-32">
          <mxGeometry relative="1" as="geometry" />
        </mxCell>
        <mxCell id="Gz5a2Q4NAkWicUtKExjE-43" value="M" style="edgeLabel;html=1;align=center;verticalAlign=middle;resizable=0;points=[];fontFamily=Helvetica;fontSize=11;fontColor=default;labelBackgroundColor=default;" vertex="1" connectable="0" parent="Gz5a2Q4NAkWicUtKExjE-34">
          <mxGeometry x="0.6658" y="1" relative="1" as="geometry">
            <mxPoint as="offset" />
          </mxGeometry>
        </mxCell>
        <mxCell id="Gz5a2Q4NAkWicUtKExjE-7" value="Supplier" style="whiteSpace=wrap;html=1;align=center;" vertex="1" parent="1">
          <mxGeometry x="170" y="390" width="100" height="40" as="geometry" />
        </mxCell>
        <mxCell id="Gz5a2Q4NAkWicUtKExjE-11" value="&lt;u&gt;ID&lt;/u&gt;" style="ellipse;whiteSpace=wrap;html=1;align=center;" vertex="1" parent="1">
          <mxGeometry x="90" y="60" width="100" height="40" as="geometry" />
        </mxCell>
        <mxCell id="Gz5a2Q4NAkWicUtKExjE-12" value="Phone Number" style="ellipse;whiteSpace=wrap;html=1;align=center;" vertex="1" parent="1">
          <mxGeometry x="200" y="30" width="100" height="40" as="geometry" />
        </mxCell>
        <mxCell id="Gz5a2Q4NAkWicUtKExjE-16" style="edgeStyle=none;rounded=0;orthogonalLoop=1;jettySize=auto;html=1;entryX=0.109;entryY=1.068;entryDx=0;entryDy=0;strokeColor=default;align=center;verticalAlign=middle;fontFamily=Helvetica;fontSize=11;fontColor=default;labelBackgroundColor=default;endArrow=none;endFill=0;entryPerimeter=0;" edge="1" parent="1" source="Gz5a2Q4NAkWicUtKExjE-13" target="Gz5a2Q4NAkWicUtKExjE-4">
          <mxGeometry relative="1" as="geometry" />
        </mxCell>
        <mxCell id="Gz5a2Q4NAkWicUtKExjE-13" value="Name" style="ellipse;whiteSpace=wrap;html=1;align=center;" vertex="1" parent="1">
          <mxGeometry x="60" y="200" width="100" height="40" as="geometry" />
        </mxCell>
        <mxCell id="Gz5a2Q4NAkWicUtKExjE-17" style="edgeStyle=none;rounded=0;orthogonalLoop=1;jettySize=auto;html=1;entryX=0;entryY=0.5;entryDx=0;entryDy=0;strokeColor=default;align=center;verticalAlign=middle;fontFamily=Helvetica;fontSize=11;fontColor=default;labelBackgroundColor=default;endArrow=none;endFill=0;" edge="1" parent="1" source="Gz5a2Q4NAkWicUtKExjE-14" target="Gz5a2Q4NAkWicUtKExjE-4">
          <mxGeometry relative="1" as="geometry" />
        </mxCell>
        <mxCell id="Gz5a2Q4NAkWicUtKExjE-14" value="Email" style="ellipse;whiteSpace=wrap;html=1;align=center;" vertex="1" parent="1">
          <mxGeometry x="30" y="130" width="100" height="40" as="geometry" />
        </mxCell>
        <mxCell id="Gz5a2Q4NAkWicUtKExjE-18" style="edgeStyle=none;rounded=0;orthogonalLoop=1;jettySize=auto;html=1;entryX=0.09;entryY=-0.012;entryDx=0;entryDy=0;entryPerimeter=0;strokeColor=default;align=center;verticalAlign=middle;fontFamily=Helvetica;fontSize=11;fontColor=default;labelBackgroundColor=default;endArrow=none;endFill=0;" edge="1" parent="1" source="Gz5a2Q4NAkWicUtKExjE-11" target="Gz5a2Q4NAkWicUtKExjE-4">
          <mxGeometry relative="1" as="geometry" />
        </mxCell>
        <mxCell id="Gz5a2Q4NAkWicUtKExjE-19" style="edgeStyle=none;rounded=0;orthogonalLoop=1;jettySize=auto;html=1;entryX=0.568;entryY=-0.012;entryDx=0;entryDy=0;entryPerimeter=0;strokeColor=default;align=center;verticalAlign=middle;fontFamily=Helvetica;fontSize=11;fontColor=default;labelBackgroundColor=default;endArrow=none;endFill=0;" edge="1" parent="1" source="Gz5a2Q4NAkWicUtKExjE-12" target="Gz5a2Q4NAkWicUtKExjE-4">
          <mxGeometry relative="1" as="geometry" />
        </mxCell>
        <mxCell id="Gz5a2Q4NAkWicUtKExjE-21" style="edgeStyle=none;rounded=0;orthogonalLoop=1;jettySize=auto;html=1;strokeColor=default;align=center;verticalAlign=middle;fontFamily=Helvetica;fontSize=11;fontColor=default;labelBackgroundColor=default;endArrow=none;endFill=0;" edge="1" parent="1" source="Gz5a2Q4NAkWicUtKExjE-20">
          <mxGeometry relative="1" as="geometry">
            <mxPoint x="669" y="430" as="targetPoint" />
          </mxGeometry>
        </mxCell>
        <mxCell id="Gz5a2Q4NAkWicUtKExjE-20" value="&lt;u&gt;ID&lt;/u&gt;" style="ellipse;whiteSpace=wrap;html=1;align=center;" vertex="1" parent="1">
          <mxGeometry x="730" y="470" width="100" height="40" as="geometry" />
        </mxCell>
        <mxCell id="Gz5a2Q4NAkWicUtKExjE-23" style="edgeStyle=none;rounded=0;orthogonalLoop=1;jettySize=auto;html=1;entryX=1;entryY=0.5;entryDx=0;entryDy=0;strokeColor=default;align=center;verticalAlign=middle;fontFamily=Helvetica;fontSize=11;fontColor=default;labelBackgroundColor=default;endArrow=none;endFill=0;" edge="1" parent="1" source="Gz5a2Q4NAkWicUtKExjE-22" target="Gz5a2Q4NAkWicUtKExjE-6">
          <mxGeometry relative="1" as="geometry" />
        </mxCell>
        <mxCell id="Gz5a2Q4NAkWicUtKExjE-22" value="In Stock" style="ellipse;whiteSpace=wrap;html=1;align=center;" vertex="1" parent="1">
          <mxGeometry x="740" y="340" width="100" height="40" as="geometry" />
        </mxCell>
        <mxCell id="Gz5a2Q4NAkWicUtKExjE-24" value="Name" style="ellipse;whiteSpace=wrap;html=1;align=center;" vertex="1" parent="1">
          <mxGeometry x="630" y="510" width="100" height="40" as="geometry" />
        </mxCell>
        <mxCell id="Gz5a2Q4NAkWicUtKExjE-27" style="edgeStyle=none;rounded=0;orthogonalLoop=1;jettySize=auto;html=1;entryX=1;entryY=0.75;entryDx=0;entryDy=0;strokeColor=default;align=center;verticalAlign=middle;fontFamily=Helvetica;fontSize=11;fontColor=default;labelBackgroundColor=default;endArrow=none;endFill=0;" edge="1" parent="1" source="Gz5a2Q4NAkWicUtKExjE-25" target="Gz5a2Q4NAkWicUtKExjE-6">
          <mxGeometry relative="1" as="geometry" />
        </mxCell>
        <mxCell id="Gz5a2Q4NAkWicUtKExjE-25" value="Price" style="ellipse;whiteSpace=wrap;html=1;align=center;" vertex="1" parent="1">
          <mxGeometry x="730" y="410" width="100" height="40" as="geometry" />
        </mxCell>
        <mxCell id="Gz5a2Q4NAkWicUtKExjE-26" style="edgeStyle=none;rounded=0;orthogonalLoop=1;jettySize=auto;html=1;entryX=0.25;entryY=1;entryDx=0;entryDy=0;strokeColor=default;align=center;verticalAlign=middle;fontFamily=Helvetica;fontSize=11;fontColor=default;labelBackgroundColor=default;endArrow=none;endFill=0;" edge="1" parent="1" source="Gz5a2Q4NAkWicUtKExjE-24" target="Gz5a2Q4NAkWicUtKExjE-6">
          <mxGeometry relative="1" as="geometry" />
        </mxCell>
        <mxCell id="Gz5a2Q4NAkWicUtKExjE-29" style="edgeStyle=none;rounded=0;orthogonalLoop=1;jettySize=auto;html=1;entryX=0.25;entryY=0;entryDx=0;entryDy=0;strokeColor=default;align=center;verticalAlign=middle;fontFamily=Helvetica;fontSize=11;fontColor=default;labelBackgroundColor=default;endArrow=none;endFill=0;" edge="1" parent="1" source="Gz5a2Q4NAkWicUtKExjE-28" target="Gz5a2Q4NAkWicUtKExjE-7">
          <mxGeometry relative="1" as="geometry" />
        </mxCell>
        <mxCell id="Gz5a2Q4NAkWicUtKExjE-28" value="&lt;u&gt;ID&lt;/u&gt;" style="ellipse;whiteSpace=wrap;html=1;align=center;" vertex="1" parent="1">
          <mxGeometry x="100" y="330" width="100" height="40" as="geometry" />
        </mxCell>
        <mxCell id="Gz5a2Q4NAkWicUtKExjE-31" style="edgeStyle=none;rounded=0;orthogonalLoop=1;jettySize=auto;html=1;entryX=0;entryY=0.5;entryDx=0;entryDy=0;strokeColor=default;align=center;verticalAlign=middle;fontFamily=Helvetica;fontSize=11;fontColor=default;labelBackgroundColor=default;endArrow=none;endFill=0;" edge="1" parent="1" source="Gz5a2Q4NAkWicUtKExjE-30" target="Gz5a2Q4NAkWicUtKExjE-7">
          <mxGeometry relative="1" as="geometry" />
        </mxCell>
        <mxCell id="Gz5a2Q4NAkWicUtKExjE-30" value="Name" style="ellipse;whiteSpace=wrap;html=1;align=center;" vertex="1" parent="1">
          <mxGeometry x="50" y="380" width="100" height="40" as="geometry" />
        </mxCell>
        <mxCell id="Gz5a2Q4NAkWicUtKExjE-35" style="edgeStyle=none;rounded=0;orthogonalLoop=1;jettySize=auto;html=1;entryX=0;entryY=0.5;entryDx=0;entryDy=0;strokeColor=default;align=center;verticalAlign=middle;fontFamily=Helvetica;fontSize=11;fontColor=default;labelBackgroundColor=default;endArrow=none;endFill=0;entryPerimeter=0;" edge="1" parent="1" source="Gz5a2Q4NAkWicUtKExjE-32" target="Gz5a2Q4NAkWicUtKExjE-6">
          <mxGeometry relative="1" as="geometry" />
        </mxCell>
        <mxCell id="Gz5a2Q4NAkWicUtKExjE-44" value="N" style="edgeLabel;html=1;align=center;verticalAlign=middle;resizable=0;points=[];fontFamily=Helvetica;fontSize=11;fontColor=default;labelBackgroundColor=default;" vertex="1" connectable="0" parent="Gz5a2Q4NAkWicUtKExjE-35">
          <mxGeometry x="-0.8003" relative="1" as="geometry">
            <mxPoint as="offset" />
          </mxGeometry>
        </mxCell>
        <mxCell id="Gz5a2Q4NAkWicUtKExjE-70" style="edgeStyle=none;rounded=0;orthogonalLoop=1;jettySize=auto;html=1;strokeColor=default;align=center;verticalAlign=middle;fontFamily=Helvetica;fontSize=11;fontColor=default;labelBackgroundColor=default;endArrow=none;endFill=0;" edge="1" parent="1" source="Gz5a2Q4NAkWicUtKExjE-32" target="Gz5a2Q4NAkWicUtKExjE-69">
          <mxGeometry relative="1" as="geometry" />
        </mxCell>
        <mxCell id="Gz5a2Q4NAkWicUtKExjE-32" value="Supplies" style="shape=rhombus;perimeter=rhombusPerimeter;whiteSpace=wrap;html=1;align=center;" vertex="1" parent="1">
          <mxGeometry x="365" y="380" width="120" height="60" as="geometry" />
        </mxCell>
        <mxCell id="Gz5a2Q4NAkWicUtKExjE-41" style="edgeStyle=none;rounded=0;orthogonalLoop=1;jettySize=auto;html=1;entryX=0.5;entryY=0;entryDx=0;entryDy=0;strokeColor=default;align=center;verticalAlign=middle;fontFamily=Helvetica;fontSize=11;fontColor=default;labelBackgroundColor=default;endArrow=none;endFill=0;" edge="1" parent="1" source="Gz5a2Q4NAkWicUtKExjE-36" target="Gz5a2Q4NAkWicUtKExjE-38">
          <mxGeometry relative="1" as="geometry" />
        </mxCell>
        <mxCell id="Gz5a2Q4NAkWicUtKExjE-45" value="M" style="edgeLabel;html=1;align=center;verticalAlign=middle;resizable=0;points=[];fontFamily=Helvetica;fontSize=11;fontColor=default;labelBackgroundColor=default;" vertex="1" connectable="0" parent="Gz5a2Q4NAkWicUtKExjE-41">
          <mxGeometry x="0.6316" y="1" relative="1" as="geometry">
            <mxPoint as="offset" />
          </mxGeometry>
        </mxCell>
        <mxCell id="Gz5a2Q4NAkWicUtKExjE-59" style="edgeStyle=none;rounded=0;orthogonalLoop=1;jettySize=auto;html=1;entryX=0;entryY=0.5;entryDx=0;entryDy=0;strokeColor=default;align=center;verticalAlign=middle;fontFamily=Helvetica;fontSize=11;fontColor=default;labelBackgroundColor=default;endArrow=none;endFill=0;" edge="1" parent="1" source="Gz5a2Q4NAkWicUtKExjE-36" target="Gz5a2Q4NAkWicUtKExjE-58">
          <mxGeometry relative="1" as="geometry" />
        </mxCell>
        <mxCell id="Gz5a2Q4NAkWicUtKExjE-62" style="edgeStyle=none;rounded=0;orthogonalLoop=1;jettySize=auto;html=1;entryX=0.5;entryY=1;entryDx=0;entryDy=0;strokeColor=default;align=center;verticalAlign=middle;fontFamily=Helvetica;fontSize=11;fontColor=default;labelBackgroundColor=default;endArrow=none;endFill=0;" edge="1" parent="1" source="Gz5a2Q4NAkWicUtKExjE-37" target="Gz5a2Q4NAkWicUtKExjE-60">
          <mxGeometry relative="1" as="geometry" />
        </mxCell>
        <mxCell id="Gz5a2Q4NAkWicUtKExjE-36" value="Orders" style="whiteSpace=wrap;html=1;align=center;" vertex="1" parent="1">
          <mxGeometry x="600" y="120" width="100" height="40" as="geometry" />
        </mxCell>
        <mxCell id="Gz5a2Q4NAkWicUtKExjE-40" style="edgeStyle=none;rounded=0;orthogonalLoop=1;jettySize=auto;html=1;entryX=0;entryY=0.5;entryDx=0;entryDy=0;strokeColor=default;align=center;verticalAlign=middle;fontFamily=Helvetica;fontSize=11;fontColor=default;labelBackgroundColor=default;endArrow=none;endFill=0;" edge="1" parent="1" source="Gz5a2Q4NAkWicUtKExjE-37" target="Gz5a2Q4NAkWicUtKExjE-36">
          <mxGeometry relative="1" as="geometry" />
        </mxCell>
        <mxCell id="Gz5a2Q4NAkWicUtKExjE-51" value="1" style="edgeLabel;html=1;align=center;verticalAlign=middle;resizable=0;points=[];fontFamily=Helvetica;fontSize=11;fontColor=default;labelBackgroundColor=default;" vertex="1" connectable="0" parent="Gz5a2Q4NAkWicUtKExjE-40">
          <mxGeometry x="-0.7789" y="1" relative="1" as="geometry">
            <mxPoint as="offset" />
          </mxGeometry>
        </mxCell>
        <mxCell id="Gz5a2Q4NAkWicUtKExjE-37" value="Makes" style="shape=rhombus;perimeter=rhombusPerimeter;whiteSpace=wrap;html=1;align=center;" vertex="1" parent="1">
          <mxGeometry x="360" y="110" width="120" height="60" as="geometry" />
        </mxCell>
        <mxCell id="Gz5a2Q4NAkWicUtKExjE-42" style="edgeStyle=none;rounded=0;orthogonalLoop=1;jettySize=auto;html=1;entryX=0.5;entryY=0;entryDx=0;entryDy=0;strokeColor=default;align=center;verticalAlign=middle;fontFamily=Helvetica;fontSize=11;fontColor=default;labelBackgroundColor=default;endArrow=none;endFill=0;" edge="1" parent="1" source="Gz5a2Q4NAkWicUtKExjE-38" target="Gz5a2Q4NAkWicUtKExjE-6">
          <mxGeometry relative="1" as="geometry" />
        </mxCell>
        <mxCell id="Gz5a2Q4NAkWicUtKExjE-46" value="N" style="edgeLabel;html=1;align=center;verticalAlign=middle;resizable=0;points=[];fontFamily=Helvetica;fontSize=11;fontColor=default;labelBackgroundColor=default;" vertex="1" connectable="0" parent="Gz5a2Q4NAkWicUtKExjE-42">
          <mxGeometry x="-0.7144" relative="1" as="geometry">
            <mxPoint as="offset" />
          </mxGeometry>
        </mxCell>
        <mxCell id="Gz5a2Q4NAkWicUtKExjE-68" style="edgeStyle=none;rounded=0;orthogonalLoop=1;jettySize=auto;html=1;entryX=1;entryY=0.5;entryDx=0;entryDy=0;strokeColor=default;align=center;verticalAlign=middle;fontFamily=Helvetica;fontSize=11;fontColor=default;labelBackgroundColor=default;endArrow=none;endFill=0;" edge="1" parent="1" source="Gz5a2Q4NAkWicUtKExjE-38" target="Gz5a2Q4NAkWicUtKExjE-67">
          <mxGeometry relative="1" as="geometry" />
        </mxCell>
        <mxCell id="Gz5a2Q4NAkWicUtKExjE-38" value="Contains" style="shape=rhombus;perimeter=rhombusPerimeter;whiteSpace=wrap;html=1;align=center;" vertex="1" parent="1">
          <mxGeometry x="590" y="240" width="120" height="60" as="geometry" />
        </mxCell>
        <mxCell id="Gz5a2Q4NAkWicUtKExjE-56" style="edgeStyle=none;rounded=0;orthogonalLoop=1;jettySize=auto;html=1;strokeColor=default;align=center;verticalAlign=middle;fontFamily=Helvetica;fontSize=11;fontColor=default;labelBackgroundColor=default;endArrow=none;endFill=0;" edge="1" parent="1" source="Gz5a2Q4NAkWicUtKExjE-54" target="Gz5a2Q4NAkWicUtKExjE-36">
          <mxGeometry relative="1" as="geometry" />
        </mxCell>
        <mxCell id="Gz5a2Q4NAkWicUtKExjE-54" value="&lt;u&gt;ID&lt;/u&gt;" style="ellipse;whiteSpace=wrap;html=1;align=center;" vertex="1" parent="1">
          <mxGeometry x="590" y="40" width="100" height="40" as="geometry" />
        </mxCell>
        <mxCell id="Gz5a2Q4NAkWicUtKExjE-57" style="edgeStyle=none;rounded=0;orthogonalLoop=1;jettySize=auto;html=1;entryX=1;entryY=0.25;entryDx=0;entryDy=0;strokeColor=default;align=center;verticalAlign=middle;fontFamily=Helvetica;fontSize=11;fontColor=default;labelBackgroundColor=default;endArrow=none;endFill=0;" edge="1" parent="1" source="Gz5a2Q4NAkWicUtKExjE-55" target="Gz5a2Q4NAkWicUtKExjE-36">
          <mxGeometry relative="1" as="geometry" />
        </mxCell>
        <mxCell id="Gz5a2Q4NAkWicUtKExjE-55" value="&lt;i&gt;&lt;u&gt;CustomerID&lt;/u&gt;&lt;/i&gt;" style="ellipse;whiteSpace=wrap;html=1;align=center;" vertex="1" parent="1">
          <mxGeometry x="700" y="70" width="100" height="40" as="geometry" />
        </mxCell>
        <mxCell id="Gz5a2Q4NAkWicUtKExjE-58" value="Date of Order" style="ellipse;whiteSpace=wrap;html=1;align=center;" vertex="1" parent="1">
          <mxGeometry x="730" y="130" width="100" height="40" as="geometry" />
        </mxCell>
        <mxCell id="Gz5a2Q4NAkWicUtKExjE-60" value="Shipment Address" style="ellipse;whiteSpace=wrap;html=1;align=center;" vertex="1" parent="1">
          <mxGeometry x="420" y="50" width="100" height="40" as="geometry" />
        </mxCell>
        <mxCell id="Gz5a2Q4NAkWicUtKExjE-63" value="Age" style="ellipse;whiteSpace=wrap;html=1;align=center;" vertex="1" parent="1">
          <mxGeometry x="180" y="210" width="100" height="40" as="geometry" />
        </mxCell>
        <mxCell id="Gz5a2Q4NAkWicUtKExjE-67" value="Quantity" style="ellipse;whiteSpace=wrap;html=1;align=center;" vertex="1" parent="1">
          <mxGeometry x="500" y="280" width="100" height="40" as="geometry" />
        </mxCell>
        <mxCell id="Gz5a2Q4NAkWicUtKExjE-69" value="End of contract" style="ellipse;whiteSpace=wrap;html=1;align=center;" vertex="1" parent="1">
          <mxGeometry x="325" y="470" width="100" height="40" as="geometry" />
        </mxCell>
      </root>
    </mxGraphModel>
  </diagram>
</mxfile>
